<svg xmlns="http://www.w3.org/2000/svg" width="600" height="400" viewBox="0 0 600 400"><rect width="100%" height="100%" fill="white"/><rect x="60" y="36" width="520" height="304" fill="none" stroke="black" stroke-width="1" shape-rendering="crispEdges"/><rect x="70.4" y="164.6" width="83.2" height="175.4" fill="#3b82f6" stroke="black" stroke-width="0.5"/><text x="112" y="356" text-anchor="middle" font-family="Arial, Helvetica, sans-serif" font-size="10px" fill="black" transform="rotate(-30,112,356)">1</text><rect x="174.4" y="281.5" width="83.2" height="58.5" fill="#ef4444" stroke="black" stroke-width="0.5"/><text x="216" y="356" text-anchor="middle" font-family="Arial, Helvetica, sans-serif" font-size="10px" fill="black" transform="rotate(-30,216,356)">2</text><rect x="278.4" y="106.2" width="83.2" height="233.8" fill="#22c55e" stroke="black" stroke-width="0.5"/><text x="320" y="356" text-anchor="middle" font-family="Arial, Helvetica, sans-serif" font-size="10px" fill="black" transform="rotate(-30,320,356)">3</text><rect x="382.4" y="281.5" width="83.2" height="58.5" fill="#f59e0b" stroke="black" stroke-width="0.5"/><text x="424" y="356" text-anchor="middle" font-family="Arial, Helvetica, sans-serif" font-size="10px" fill="black" transform="rotate(-30,424,356)">4</text><rect x="486.4" y="47.7" width="83.2" height="292.3" fill="#8b5cf6" stroke="black" stroke-width="0.5"/><text x="528" y="356" text-anchor="middle" font-family="Arial, Helvetica, sans-serif" font-size="10px" fill="black" transform="rotate(-30,528,356)">5</text><text x="300" y="18" text-anchor="middle" font-family="Arial, Helvetica, sans-serif" font-size="16.8px" fill="black" font-weight="bold">Barplot</text><text x="60" y="354" text-anchor="middle" font-family="Arial, Helvetica, sans-serif" font-size="9.0px" fill="black">0.00</text><text x="55" y="343" text-anchor="end" font-family="Arial, Helvetica, sans-serif" font-size="9.0px" fill="black">0.00</text><text x="190" y="354" text-anchor="middle" font-family="Arial, Helvetica, sans-serif" font-size="9.0px" fill="black">1.25</text><text x="55" y="267" text-anchor="end" font-family="Arial, Helvetica, sans-serif" font-size="9.0px" fill="black">1.30</text><text x="320" y="354" text-anchor="middle" font-family="Arial, Helvetica, sans-serif" font-size="9.0px" fill="black">2.50</text><text x="55" y="191" text-anchor="end" font-family="Arial, Helvetica, sans-serif" font-size="9.0px" fill="black">2.60</text><text x="450" y="354" text-anchor="middle" font-family="Arial, Helvetica, sans-serif" font-size="9.0px" fill="black">3.75</text><text x="55" y="115" text-anchor="end" font-family="Arial, Helvetica, sans-serif" font-size="9.0px" fill="black">3.90</text><text x="580" y="354" text-anchor="middle" font-family="Arial, Helvetica, sans-serif" font-size="9.0px" fill="black">5.00</text><text x="55" y="39" text-anchor="end" font-family="Arial, Helvetica, sans-serif" font-size="9.0px" fill="black">5.20</text></svg>