<svg xmlns="http://www.w3.org/2000/svg" width="600" height="400" viewBox="0 0 600 400"><rect width="100%" height="100%" fill="white"/><text x="300" y="18" text-anchor="middle" font-size="14" font-weight="bold">Barplot</text><rect x="70.4" y="158.0" width="83.2" height="192.0" fill="#3b82f6"/><text x="112" y="153" text-anchor="middle" font-size="10">3.0</text><text x="112" y="370" text-anchor="middle" font-size="10" transform="rotate(-30,112,370)">1</text><rect x="174.4" y="286.0" width="83.2" height="64.0" fill="#ef4444"/><text x="216" y="281" text-anchor="middle" font-size="10">1.0</text><text x="216" y="370" text-anchor="middle" font-size="10" transform="rotate(-30,216,370)">2</text><rect x="278.4" y="94.0" width="83.2" height="256.0" fill="#22c55e"/><text x="320" y="89" text-anchor="middle" font-size="10">4.0</text><text x="320" y="370" text-anchor="middle" font-size="10" transform="rotate(-30,320,370)">3</text><rect x="382.4" y="286.0" width="83.2" height="64.0" fill="#f59e0b"/><text x="424" y="281" text-anchor="middle" font-size="10">1.0</text><text x="424" y="370" text-anchor="middle" font-size="10" transform="rotate(-30,424,370)">4</text><rect x="486.4" y="30.0" width="83.2" height="320.0" fill="#8b5cf6"/><text x="528" y="25" text-anchor="middle" font-size="10">5.0</text><text x="528" y="370" text-anchor="middle" font-size="10" transform="rotate(-30,528,370)">5</text></svg>