<svg xmlns="http://www.w3.org/2000/svg" width="600" height="400" viewBox="0 0 600 400"><rect width="100%" height="100%" fill="white"/><rect x="60" y="36" width="520" height="324" fill="none" stroke="black" stroke-width="1" shape-rendering="crispEdges"/><rect x="79.26" y="36.00" width="48.15" height="324.00" fill="lightgray" stroke="black" stroke-width="0.5"/><rect x="127.41" y="36.00" width="48.15" height="324.00" fill="lightgray" stroke="black" stroke-width="0.5"/><rect x="175.56" y="36.00" width="48.15" height="324.00" fill="lightgray" stroke="black" stroke-width="0.5"/><rect x="223.70" y="36.00" width="48.15" height="324.00" fill="lightgray" stroke="black" stroke-width="0.5"/><rect x="271.85" y="36.00" width="48.15" height="324.00" fill="lightgray" stroke="black" stroke-width="0.5"/><rect x="320.00" y="36.00" width="48.15" height="324.00" fill="lightgray" stroke="black" stroke-width="0.5"/><rect x="368.15" y="36.00" width="48.15" height="324.00" fill="lightgray" stroke="black" stroke-width="0.5"/><rect x="416.30" y="36.00" width="48.15" height="324.00" fill="lightgray" stroke="black" stroke-width="0.5"/><rect x="464.44" y="36.00" width="48.15" height="324.00" fill="lightgray" stroke="black" stroke-width="0.5"/><rect x="512.59" y="36.00" width="48.15" height="324.00" fill="lightgray" stroke="black" stroke-width="0.5"/><text x="300" y="18" text-anchor="middle" font-family="Arial, Helvetica, sans-serif" font-size="16.8px" fill="black" font-weight="bold">Histogram</text><text x="320" y="392" text-anchor="middle" font-family="Arial, Helvetica, sans-serif" font-size="12.0px" fill="black">x</text><text x="15" y="198" text-anchor="middle" font-family="Arial, Helvetica, sans-serif" font-size="12.0px" fill="black" transform="rotate(-90,15,198)">Frequency</text><text x="60" y="374" text-anchor="middle" font-family="Arial, Helvetica, sans-serif" font-size="9.0px" fill="black">0.64</text><text x="55" y="363" text-anchor="end" font-family="Arial, Helvetica, sans-serif" font-size="9.0px" fill="black">0.00</text><text x="190" y="374" text-anchor="middle" font-family="Arial, Helvetica, sans-serif" font-size="9.0px" fill="black">3.07</text><text x="55" y="282" text-anchor="end" font-family="Arial, Helvetica, sans-serif" font-size="9.0px" fill="black">0.25</text><text x="320" y="374" text-anchor="middle" font-family="Arial, Helvetica, sans-serif" font-size="9.0px" fill="black">5.50</text><text x="55" y="201" text-anchor="end" font-family="Arial, Helvetica, sans-serif" font-size="9.0px" fill="black">0.50</text><text x="450" y="374" text-anchor="middle" font-family="Arial, Helvetica, sans-serif" font-size="9.0px" fill="black">7.93</text><text x="55" y="120" text-anchor="end" font-family="Arial, Helvetica, sans-serif" font-size="9.0px" fill="black">0.75</text><text x="580" y="374" text-anchor="middle" font-family="Arial, Helvetica, sans-serif" font-size="9.0px" fill="black">10.36</text><text x="55" y="39" text-anchor="end" font-family="Arial, Helvetica, sans-serif" font-size="9.0px" fill="black">1.00</text></svg>