<svg xmlns="http://www.w3.org/2000/svg" width="600" height="400" viewBox="0 0 600 400"><rect width="100%" height="100%" fill="white"/><rect x="60" y="30" width="520" height="330" fill="none" stroke="black" stroke-width="1"/><text x="300" y="18" text-anchor="middle" font-size="14.0" font-weight="bold">Linear trend with overlay</text><text x="320" y="395" text-anchor="middle" font-size="11">x</text><text x="15" y="195" text-anchor="middle" font-size="11" transform="rotate(-90,15,195)">y</text><circle cx="60.0" cy="360.0" r="3" fill="black" opacity="0.7"/><circle cx="117.8" cy="327.0" r="3" fill="black" opacity="0.7"/><circle cx="175.6" cy="284.8" r="3" fill="black" opacity="0.7"/><circle cx="233.3" cy="255.5" r="3" fill="black" opacity="0.7"/><circle cx="291.1" cy="213.3" r="3" fill="black" opacity="0.7"/><circle cx="348.9" cy="178.5" r="3" fill="black" opacity="0.7"/><circle cx="406.7" cy="145.5" r="3" fill="black" opacity="0.7"/><circle cx="464.4" cy="101.5" r="3" fill="black" opacity="0.7"/><circle cx="522.2" cy="70.3" r="3" fill="black" opacity="0.7"/><circle cx="580.0" cy="30.0" r="3" fill="black" opacity="0.7"/><text x="60" y="375" text-anchor="middle" font-size="9">1.0</text><text x="55" y="363" text-anchor="end" font-size="9">2.1</text><text x="190" y="375" text-anchor="middle" font-size="9">3.2</text><text x="55" y="280" text-anchor="end" font-size="9">6.6</text><text x="320" y="375" text-anchor="middle" font-size="9">5.5</text><text x="55" y="198" text-anchor="end" font-size="9">11.1</text><text x="450" y="375" text-anchor="middle" font-size="9">7.8</text><text x="55" y="116" text-anchor="end" font-size="9">15.6</text><text x="580" y="375" text-anchor="middle" font-size="9">10.0</text><text x="55" y="33" text-anchor="end" font-size="9">20.1</text><line x1="70.0" y1="349.0" x2="80.0" y2="331.0" stroke="blue" stroke-width="2"/><line x1="80.0" y1="331.0" x2="90.0" y2="308.0" stroke="blue" stroke-width="2"/><line x1="90.0" y1="308.0" x2="100.0" y2="292.0" stroke="blue" stroke-width="2"/><line x1="100.0" y1="292.0" x2="110.0" y2="269.0" stroke="blue" stroke-width="2"/><line x1="110.0" y1="269.0" x2="120.0" y2="250.0" stroke="blue" stroke-width="2"/><line x1="120.0" y1="250.0" x2="130.0" y2="232.0" stroke="blue" stroke-width="2"/><line x1="130.0" y1="232.0" x2="140.0" y2="208.0" stroke="blue" stroke-width="2"/><line x1="140.0" y1="208.0" x2="150.0" y2="191.0" stroke="blue" stroke-width="2"/><line x1="150.0" y1="191.0" x2="160.0" y2="169.0" stroke="blue" stroke-width="2"/><line x1="60" y1="370" x2="560" y2="-630" stroke="red" stroke-dasharray="5,5" stroke-width="2"/><rect x="65" y="30" width="140" height="50" fill="white" stroke="black" stroke-width="0.5"/><rect x="70" y="36" width="12" height="12" fill="blue"/><text x="88" y="45" font-size="11">data</text><rect x="70" y="56" width="12" height="12" fill="red"/><text x="88" y="65" font-size="11">y=2x</text></svg>