<svg xmlns="http://www.w3.org/2000/svg" width="600" height="400" viewBox="0 0 600 400"><rect width="100%" height="100%" fill="white"/><text x="300" y="18" text-anchor="middle" font-size="14" font-weight="bold">Sepal Length</text><rect x="60.0" y="72.2" width="52.0" height="21.1" fill="#3b82f6" stroke="white" stroke-width="1"/><rect x="112.0" y="39.4" width="52.0" height="54.0" fill="#3b82f6" stroke="white" stroke-width="1"/><rect x="164.0" y="60.5" width="52.0" height="32.8" fill="#3b82f6" stroke="white" stroke-width="1"/><rect x="216.0" y="30.0" width="52.0" height="63.3" fill="#3b82f6" stroke="white" stroke-width="1"/><rect x="268.0" y="41.7" width="52.0" height="51.6" fill="#3b82f6" stroke="white" stroke-width="1"/><rect x="320.0" y="46.4" width="52.0" height="46.9" fill="#3b82f6" stroke="white" stroke-width="1"/><rect x="372.0" y="51.1" width="52.0" height="42.2" fill="#3b82f6" stroke="white" stroke-width="1"/><rect x="424.0" y="79.3" width="52.0" height="14.1" fill="#3b82f6" stroke="white" stroke-width="1"/><rect x="476.0" y="81.6" width="52.0" height="11.7" fill="#3b82f6" stroke="white" stroke-width="1"/><rect x="528.0" y="79.3" width="52.0" height="14.1" fill="#3b82f6" stroke="white" stroke-width="1"/><line x1="60" y1="93.33333333333334" x2="580" y2="93.33333333333334" stroke="black"/><line x1="60" y1="30" x2="60" y2="93.33333333333334" stroke="black"/><text x="300" y="151.33333333333334" text-anchor="middle" font-size="14" font-weight="bold">Petal Length</text><rect x="60.0" y="163.3" width="52.0" height="63.3" fill="#3b82f6" stroke="white" stroke-width="1"/><rect x="112.0" y="204.4" width="52.0" height="22.3" fill="#3b82f6" stroke="white" stroke-width="1"/><rect x="164.0" y="226.7" width="52.0" height="0.0" fill="#3b82f6" stroke="white" stroke-width="1"/><rect x="216.0" y="221.5" width="52.0" height="5.1" fill="#3b82f6" stroke="white" stroke-width="1"/><rect x="268.0" y="213.0" width="52.0" height="13.7" fill="#3b82f6" stroke="white" stroke-width="1"/><rect x="320.0" y="182.2" width="52.0" height="44.5" fill="#3b82f6" stroke="white" stroke-width="1"/><rect x="372.0" y="177.0" width="52.0" height="49.6" fill="#3b82f6" stroke="white" stroke-width="1"/><rect x="424.0" y="195.9" width="52.0" height="30.8" fill="#3b82f6" stroke="white" stroke-width="1"/><rect x="476.0" y="207.8" width="52.0" height="18.8" fill="#3b82f6" stroke="white" stroke-width="1"/><rect x="528.0" y="218.1" width="52.0" height="8.6" fill="#3b82f6" stroke="white" stroke-width="1"/><line x1="60" y1="226.66666666666669" x2="580" y2="226.66666666666669" stroke="black"/><line x1="60" y1="163.33333333333334" x2="60" y2="226.66666666666669" stroke="black"/><text x="300" y="284.6666666666667" text-anchor="middle" font-size="14" font-weight="bold">Petal Width</text><rect x="60.0" y="296.7" width="52.0" height="63.3" fill="#3b82f6" stroke="white" stroke-width="1"/><rect x="112.0" y="347.6" width="52.0" height="12.4" fill="#3b82f6" stroke="white" stroke-width="1"/><rect x="164.0" y="358.5" width="52.0" height="1.5" fill="#3b82f6" stroke="white" stroke-width="1"/><rect x="216.0" y="349.2" width="52.0" height="10.8" fill="#3b82f6" stroke="white" stroke-width="1"/><rect x="268.0" y="347.6" width="52.0" height="12.4" fill="#3b82f6" stroke="white" stroke-width="1"/><rect x="320.0" y="309.0" width="52.0" height="51.0" fill="#3b82f6" stroke="white" stroke-width="1"/><rect x="372.0" y="350.7" width="52.0" height="9.3" fill="#3b82f6" stroke="white" stroke-width="1"/><rect x="424.0" y="324.5" width="52.0" height="35.5" fill="#3b82f6" stroke="white" stroke-width="1"/><rect x="476.0" y="346.1" width="52.0" height="13.9" fill="#3b82f6" stroke="white" stroke-width="1"/><rect x="528.0" y="338.4" width="52.0" height="21.6" fill="#3b82f6" stroke="white" stroke-width="1"/><line x1="60" y1="360" x2="580" y2="360" stroke="black"/><line x1="60" y1="296.6666666666667" x2="60" y2="360" stroke="black"/></svg>