<svg xmlns="http://www.w3.org/2000/svg" width="600" height="400" viewBox="0 0 600 400"><rect width="100%" height="100%" fill="white"/><rect x="60" y="30" width="220" height="130" fill="none" stroke="black" stroke-width="1"/><text x="150" y="18" text-anchor="middle" font-size="14.0" font-weight="bold">Sepal L vs W</text><text x="170" y="195" text-anchor="middle" font-size="11">length</text><text x="15" y="95" text-anchor="middle" font-size="11" transform="rotate(-90,15,95)">width</text><circle cx="108.9" cy="78.8" r="3" fill="black" opacity="0.7"/><circle cx="96.7" cy="105.8" r="3" fill="black" opacity="0.7"/><circle cx="84.4" cy="95.0" r="3" fill="black" opacity="0.7"/><circle cx="78.3" cy="100.4" r="3" fill="black" opacity="0.7"/><circle cx="102.8" cy="73.3" r="3" fill="black" opacity="0.7"/><circle cx="127.2" cy="57.1" r="3" fill="black" opacity="0.7"/><circle cx="78.3" cy="84.2" r="3" fill="black" opacity="0.7"/><circle cx="102.8" cy="84.2" r="3" fill="black" opacity="0.7"/><circle cx="66.1" cy="111.3" r="3" fill="black" opacity="0.7"/><circle cx="96.7" cy="100.4" r="3" fill="black" opacity="0.7"/><circle cx="127.2" cy="67.9" r="3" fill="black" opacity="0.7"/><circle cx="90.6" cy="84.2" r="3" fill="black" opacity="0.7"/><circle cx="90.6" cy="105.8" r="3" fill="black" opacity="0.7"/><circle cx="60.0" cy="105.8" r="3" fill="black" opacity="0.7"/><circle cx="151.7" cy="51.7" r="3" fill="black" opacity="0.7"/><circle cx="145.6" cy="30.0" r="3" fill="black" opacity="0.7"/><circle cx="127.2" cy="57.1" r="3" fill="black" opacity="0.7"/><circle cx="108.9" cy="78.8" r="3" fill="black" opacity="0.7"/><circle cx="145.6" cy="62.5" r="3" fill="black" opacity="0.7"/><circle cx="108.9" cy="62.5" r="3" fill="black" opacity="0.7"/><circle cx="127.2" cy="84.2" r="3" fill="black" opacity="0.7"/><circle cx="108.9" cy="67.9" r="3" fill="black" opacity="0.7"/><circle cx="78.3" cy="73.3" r="3" fill="black" opacity="0.7"/><circle cx="108.9" cy="89.6" r="3" fill="black" opacity="0.7"/><circle cx="90.6" cy="84.2" r="3" fill="black" opacity="0.7"/><circle cx="102.8" cy="105.8" r="3" fill="black" opacity="0.7"/><circle cx="102.8" cy="84.2" r="3" fill="black" opacity="0.7"/><circle cx="115.0" cy="78.8" r="3" fill="black" opacity="0.7"/><circle cx="115.0" cy="84.2" r="3" fill="black" opacity="0.7"/><circle cx="84.4" cy="95.0" r="3" fill="black" opacity="0.7"/><circle cx="90.6" cy="100.4" r="3" fill="black" opacity="0.7"/><circle cx="127.2" cy="84.2" r="3" fill="black" opacity="0.7"/><circle cx="115.0" cy="46.3" r="3" fill="black" opacity="0.7"/><circle cx="133.3" cy="40.8" r="3" fill="black" opacity="0.7"/><circle cx="96.7" cy="100.4" r="3" fill="black" opacity="0.7"/><circle cx="102.8" cy="95.0" r="3" fill="black" opacity="0.7"/><circle cx="133.3" cy="78.8" r="3" fill="black" opacity="0.7"/><circle cx="96.7" cy="73.3" r="3" fill="black" opacity="0.7"/><circle cx="66.1" cy="105.8" r="3" fill="black" opacity="0.7"/><circle cx="108.9" cy="84.2" r="3" fill="black" opacity="0.7"/><circle cx="102.8" cy="78.8" r="3" fill="black" opacity="0.7"/><circle cx="72.2" cy="143.8" r="3" fill="black" opacity="0.7"/><circle cx="66.1" cy="95.0" r="3" fill="black" opacity="0.7"/><circle cx="102.8" cy="78.8" r="3" fill="black" opacity="0.7"/><circle cx="108.9" cy="62.5" r="3" fill="black" opacity="0.7"/><circle cx="90.6" cy="105.8" r="3" fill="black" opacity="0.7"/><circle cx="108.9" cy="62.5" r="3" fill="black" opacity="0.7"/><circle cx="78.3" cy="95.0" r="3" fill="black" opacity="0.7"/><circle cx="121.1" cy="67.9" r="3" fill="black" opacity="0.7"/><circle cx="102.8" cy="89.6" r="3" fill="black" opacity="0.7"/><circle cx="225.0" cy="95.0" r="3" fill="black" opacity="0.7"/><circle cx="188.3" cy="95.0" r="3" fill="black" opacity="0.7"/><circle cx="218.9" cy="100.4" r="3" fill="black" opacity="0.7"/><circle cx="133.3" cy="143.8" r="3" fill="black" opacity="0.7"/><circle cx="194.4" cy="116.7" r="3" fill="black" opacity="0.7"/><circle cx="145.6" cy="116.7" r="3" fill="black" opacity="0.7"/><circle cx="182.2" cy="89.6" r="3" fill="black" opacity="0.7"/><circle cx="96.7" cy="138.3" r="3" fill="black" opacity="0.7"/><circle cx="200.6" cy="111.3" r="3" fill="black" opacity="0.7"/><circle cx="115.0" cy="122.1" r="3" fill="black" opacity="0.7"/><circle cx="102.8" cy="160.0" r="3" fill="black" opacity="0.7"/><circle cx="157.8" cy="105.8" r="3" fill="black" opacity="0.7"/><circle cx="163.9" cy="149.2" r="3" fill="black" opacity="0.7"/><circle cx="170.0" cy="111.3" r="3" fill="black" opacity="0.7"/><circle cx="139.4" cy="111.3" r="3" fill="black" opacity="0.7"/><circle cx="206.7" cy="100.4" r="3" fill="black" opacity="0.7"/><circle cx="139.4" cy="105.8" r="3" fill="black" opacity="0.7"/><circle cx="151.7" cy="122.1" r="3" fill="black" opacity="0.7"/><circle cx="176.1" cy="149.2" r="3" fill="black" opacity="0.7"/><circle cx="139.4" cy="132.9" r="3" fill="black" opacity="0.7"/><circle cx="157.8" cy="95.0" r="3" fill="black" opacity="0.7"/><circle cx="170.0" cy="116.7" r="3" fill="black" opacity="0.7"/><circle cx="182.2" cy="132.9" r="3" fill="black" opacity="0.7"/><circle cx="170.0" cy="116.7" r="3" fill="black" opacity="0.7"/><circle cx="188.3" cy="111.3" r="3" fill="black" opacity="0.7"/><circle cx="200.6" cy="105.8" r="3" fill="black" opacity="0.7"/><circle cx="212.8" cy="116.7" r="3" fill="black" opacity="0.7"/><circle cx="206.7" cy="105.8" r="3" fill="black" opacity="0.7"/><circle cx="163.9" cy="111.3" r="3" fill="black" opacity="0.7"/><circle cx="145.6" cy="127.5" r="3" fill="black" opacity="0.7"/><circle cx="133.3" cy="138.3" r="3" fill="black" opacity="0.7"/><circle cx="133.3" cy="138.3" r="3" fill="black" opacity="0.7"/><circle cx="151.7" cy="122.1" r="3" fill="black" opacity="0.7"/><circle cx="163.9" cy="122.1" r="3" fill="black" opacity="0.7"/><circle cx="127.2" cy="105.8" r="3" fill="black" opacity="0.7"/><circle cx="163.9" cy="84.2" r="3" fill="black" opacity="0.7"/><circle cx="206.7" cy="100.4" r="3" fill="black" opacity="0.7"/><circle cx="182.2" cy="143.8" r="3" fill="black" opacity="0.7"/><circle cx="139.4" cy="105.8" r="3" fill="black" opacity="0.7"/><circle cx="133.3" cy="132.9" r="3" fill="black" opacity="0.7"/><circle cx="133.3" cy="127.5" r="3" fill="black" opacity="0.7"/><circle cx="170.0" cy="105.8" r="3" fill="black" opacity="0.7"/><circle cx="151.7" cy="127.5" r="3" fill="black" opacity="0.7"/><circle cx="102.8" cy="143.8" r="3" fill="black" opacity="0.7"/><circle cx="139.4" cy="122.1" r="3" fill="black" opacity="0.7"/><circle cx="145.6" cy="105.8" r="3" fill="black" opacity="0.7"/><circle cx="145.6" cy="111.3" r="3" fill="black" opacity="0.7"/><circle cx="176.1" cy="111.3" r="3" fill="black" opacity="0.7"/><circle cx="108.9" cy="132.9" r="3" fill="black" opacity="0.7"/><circle cx="145.6" cy="116.7" r="3" fill="black" opacity="0.7"/><circle cx="182.2" cy="89.6" r="3" fill="black" opacity="0.7"/><circle cx="151.7" cy="122.1" r="3" fill="black" opacity="0.7"/><circle cx="231.1" cy="105.8" r="3" fill="black" opacity="0.7"/><circle cx="182.2" cy="111.3" r="3" fill="black" opacity="0.7"/><circle cx="194.4" cy="132.9" r="3" fill="black" opacity="0.7"/><circle cx="261.7" cy="105.8" r="3" fill="black" opacity="0.7"/><circle cx="96.7" cy="132.9" r="3" fill="black" opacity="0.7"/><circle cx="243.3" cy="111.3" r="3" fill="black" opacity="0.7"/><circle cx="206.7" cy="132.9" r="3" fill="black" opacity="0.7"/><circle cx="237.2" cy="73.3" r="3" fill="black" opacity="0.7"/><circle cx="194.4" cy="95.0" r="3" fill="black" opacity="0.7"/><circle cx="188.3" cy="122.1" r="3" fill="black" opacity="0.7"/><circle cx="212.8" cy="105.8" r="3" fill="black" opacity="0.7"/><circle cx="145.6" cy="132.9" r="3" fill="black" opacity="0.7"/><circle cx="151.7" cy="116.7" r="3" fill="black" opacity="0.7"/><circle cx="188.3" cy="95.0" r="3" fill="black" opacity="0.7"/><circle cx="194.4" cy="105.8" r="3" fill="black" opacity="0.7"/><circle cx="267.8" cy="62.5" r="3" fill="black" opacity="0.7"/><circle cx="267.8" cy="127.5" r="3" fill="black" opacity="0.7"/><circle cx="163.9" cy="149.2" r="3" fill="black" opacity="0.7"/><circle cx="218.9" cy="95.0" r="3" fill="black" opacity="0.7"/><circle cx="139.4" cy="116.7" r="3" fill="black" opacity="0.7"/><circle cx="267.8" cy="116.7" r="3" fill="black" opacity="0.7"/><circle cx="182.2" cy="122.1" r="3" fill="black" opacity="0.7"/><circle cx="206.7" cy="89.6" r="3" fill="black" opacity="0.7"/><circle cx="237.2" cy="95.0" r="3" fill="black" opacity="0.7"/><circle cx="176.1" cy="116.7" r="3" fill="black" opacity="0.7"/><circle cx="170.0" cy="105.8" r="3" fill="black" opacity="0.7"/><circle cx="188.3" cy="116.7" r="3" fill="black" opacity="0.7"/><circle cx="237.2" cy="105.8" r="3" fill="black" opacity="0.7"/><circle cx="249.4" cy="116.7" r="3" fill="black" opacity="0.7"/><circle cx="280.0" cy="62.5" r="3" fill="black" opacity="0.7"/><circle cx="188.3" cy="116.7" r="3" fill="black" opacity="0.7"/><circle cx="182.2" cy="116.7" r="3" fill="black" opacity="0.7"/><circle cx="170.0" cy="127.5" r="3" fill="black" opacity="0.7"/><circle cx="267.8" cy="105.8" r="3" fill="black" opacity="0.7"/><circle cx="182.2" cy="84.2" r="3" fill="black" opacity="0.7"/><circle cx="188.3" cy="100.4" r="3" fill="black" opacity="0.7"/><circle cx="163.9" cy="105.8" r="3" fill="black" opacity="0.7"/><circle cx="218.9" cy="100.4" r="3" fill="black" opacity="0.7"/><circle cx="206.7" cy="100.4" r="3" fill="black" opacity="0.7"/><circle cx="218.9" cy="100.4" r="3" fill="black" opacity="0.7"/><circle cx="151.7" cy="122.1" r="3" fill="black" opacity="0.7"/><circle cx="212.8" cy="95.0" r="3" fill="black" opacity="0.7"/><circle cx="206.7" cy="89.6" r="3" fill="black" opacity="0.7"/><circle cx="206.7" cy="105.8" r="3" fill="black" opacity="0.7"/><circle cx="182.2" cy="132.9" r="3" fill="black" opacity="0.7"/><circle cx="194.4" cy="105.8" r="3" fill="black" opacity="0.7"/><circle cx="176.1" cy="84.2" r="3" fill="black" opacity="0.7"/><circle cx="157.8" cy="105.8" r="3" fill="black" opacity="0.7"/><text x="60" y="175" text-anchor="middle" font-size="9">4.3</text><text x="55" y="163" text-anchor="end" font-size="9">2.0</text><text x="115" y="175" text-anchor="middle" font-size="9">5.2</text><text x="55" y="130" text-anchor="end" font-size="9">2.6</text><text x="170" y="175" text-anchor="middle" font-size="9">6.1</text><text x="55" y="98" text-anchor="end" font-size="9">3.2</text><text x="225" y="175" text-anchor="middle" font-size="9">7.0</text><text x="55" y="66" text-anchor="end" font-size="9">3.8</text><text x="280" y="175" text-anchor="middle" font-size="9">7.9</text><text x="55" y="33" text-anchor="end" font-size="9">4.4</text><text x="450" y="18" text-anchor="middle" font-size="14" font-weight="bold">Petal length</text><rect x="360.0" y="40.0" width="18.3" height="120.0" fill="#3b82f6" stroke="white" stroke-width="1"/><rect x="378.3" y="30.0" width="18.3" height="130.0" fill="#3b82f6" stroke="white" stroke-width="1"/><rect x="396.7" y="160.0" width="18.3" height="0.0" fill="#3b82f6" stroke="white" stroke-width="1"/><rect x="415.0" y="160.0" width="18.3" height="0.0" fill="#3b82f6" stroke="white" stroke-width="1"/><rect x="433.3" y="145.0" width="18.3" height="15.0" fill="#3b82f6" stroke="white" stroke-width="1"/><rect x="451.7" y="120.0" width="18.3" height="40.0" fill="#3b82f6" stroke="white" stroke-width="1"/><rect x="470.0" y="70.0" width="18.3" height="90.0" fill="#3b82f6" stroke="white" stroke-width="1"/><rect x="488.3" y="35.0" width="18.3" height="125.0" fill="#3b82f6" stroke="white" stroke-width="1"/><rect x="506.7" y="70.0" width="18.3" height="90.0" fill="#3b82f6" stroke="white" stroke-width="1"/><rect x="525.0" y="75.0" width="18.3" height="85.0" fill="#3b82f6" stroke="white" stroke-width="1"/><rect x="543.3" y="125.0" width="18.3" height="35.0" fill="#3b82f6" stroke="white" stroke-width="1"/><rect x="561.7" y="140.0" width="18.3" height="20.0" fill="#3b82f6" stroke="white" stroke-width="1"/><line x1="360" y1="160" x2="580" y2="160" stroke="black"/><line x1="360" y1="30" x2="360" y2="160" stroke="black"/><text x="150" y="218" text-anchor="middle" font-size="14" font-weight="bold">Sepal length by species</text><line x1="95" y1="360" x2="95" y2="342" stroke="black"/><line x1="95" y1="328" x2="95" y2="306" stroke="black"/><line x1="84" y1="360" x2="106" y2="360" stroke="black"/><line x1="84" y1="306" x2="106" y2="306" stroke="black"/><rect x="74" y="328" width="42" height="14" fill="#93c5fd" stroke="black"/><line x1="74" y1="335" x2="116" y2="335" stroke="black" stroke-width="2"/><text x="95" y="375" text-anchor="middle" font-size="10">setosa</text><line x1="165" y1="338" x2="165" y2="313" stroke="black"/><line x1="165" y1="288" x2="165" y2="262" stroke="black"/><line x1="154" y1="338" x2="176" y2="338" stroke="black"/><line x1="154" y1="262" x2="176" y2="262" stroke="black"/><rect x="144" y="288" width="42" height="25" fill="#93c5fd" stroke="black"/><line x1="144" y1="302" x2="186" y2="302" stroke="black" stroke-width="2"/><text x="165" y="375" text-anchor="middle" font-size="10">versicolor</text><line x1="235" y1="329" x2="235" y2="291" stroke="black"/><line x1="235" y1="266" x2="235" y2="230" stroke="black"/><line x1="224" y1="329" x2="246" y2="329" stroke="black"/><line x1="224" y1="230" x2="246" y2="230" stroke="black"/><rect x="214" y="266" width="42" height="25" fill="#93c5fd" stroke="black"/><line x1="214" y1="281" x2="256" y2="281" stroke="black" stroke-width="2"/><text x="235" y="375" text-anchor="middle" font-size="10">virginica</text><text x="450" y="218" text-anchor="middle" font-size="14" font-weight="bold">Species counts</text><rect x="367.3" y="230.0" width="58.7" height="120.0" fill="#3b82f6"/><text x="397" y="225" text-anchor="middle" font-size="10">50.0</text><text x="397" y="370" text-anchor="middle" font-size="10" transform="rotate(-30,397,370)">setosa</text><rect x="440.7" y="230.0" width="58.7" height="120.0" fill="#ef4444"/><text x="470" y="225" text-anchor="middle" font-size="10">50.0</text><text x="470" y="370" text-anchor="middle" font-size="10" transform="rotate(-30,470,370)">versicolor</text><rect x="514.0" y="230.0" width="58.7" height="120.0" fill="#22c55e"/><text x="543" y="225" text-anchor="middle" font-size="10">50.0</text><text x="543" y="370" text-anchor="middle" font-size="10" transform="rotate(-30,543,370)">virginica</text></svg>