<svg xmlns="http://www.w3.org/2000/svg" width="600" height="400" viewBox="0 0 600 400"><rect width="100%" height="100%" fill="white"/><rect x="60" y="30" width="520" height="330" fill="none" stroke="black" stroke-width="1"/><text x="300" y="18" text-anchor="middle" font-size="14.0" font-weight="bold">Single panel after restore</text><text x="320" y="395" text-anchor="middle" font-size="11">x</text><text x="15" y="195" text-anchor="middle" font-size="11" transform="rotate(-90,15,195)">y</text><circle cx="60.0" cy="360.0" r="3" fill="black" opacity="0.7"/><circle cx="117.8" cy="296.8" r="3" fill="black" opacity="0.7"/><circle cx="175.6" cy="248.3" r="3" fill="black" opacity="0.7"/><circle cx="233.3" cy="207.4" r="3" fill="black" opacity="0.7"/><circle cx="291.1" cy="171.4" r="3" fill="black" opacity="0.7"/><circle cx="348.9" cy="138.8" r="3" fill="black" opacity="0.7"/><circle cx="406.7" cy="108.8" r="3" fill="black" opacity="0.7"/><circle cx="464.4" cy="81.0" r="3" fill="black" opacity="0.7"/><circle cx="522.2" cy="54.8" r="3" fill="black" opacity="0.7"/><circle cx="580.0" cy="30.0" r="3" fill="black" opacity="0.7"/><text x="60" y="375" text-anchor="middle" font-size="9">1.0</text><text x="55" y="363" text-anchor="end" font-size="9">5.0</text><text x="190" y="375" text-anchor="middle" font-size="9">3.2</text><text x="55" y="280" text-anchor="end" font-size="9">7.7</text><text x="320" y="375" text-anchor="middle" font-size="9">5.5</text><text x="55" y="198" text-anchor="end" font-size="9">10.4</text><text x="450" y="375" text-anchor="middle" font-size="9">7.8</text><text x="55" y="116" text-anchor="end" font-size="9">13.1</text><text x="580" y="375" text-anchor="middle" font-size="9">10.0</text><text x="55" y="33" text-anchor="end" font-size="9">15.8</text></svg>