<svg xmlns="http://www.w3.org/2000/svg" width="600" height="400" viewBox="0 0 600 400"><rect width="100%" height="100%" fill="white"/><rect x="60" y="30" width="220" height="130" fill="none" stroke="black" stroke-width="1"/><text x="150" y="18" text-anchor="middle" font-size="14.0" font-weight="bold">linear</text><text x="170" y="195" text-anchor="middle" font-size="11">x</text><text x="15" y="95" text-anchor="middle" font-size="11" transform="rotate(-90,15,95)">y</text><circle cx="60.0" cy="160.0" r="3" fill="black" opacity="0.7"/><circle cx="84.4" cy="145.6" r="3" fill="black" opacity="0.7"/><circle cx="108.9" cy="131.1" r="3" fill="black" opacity="0.7"/><circle cx="133.3" cy="116.7" r="3" fill="black" opacity="0.7"/><circle cx="157.8" cy="102.2" r="3" fill="black" opacity="0.7"/><circle cx="182.2" cy="87.8" r="3" fill="black" opacity="0.7"/><circle cx="206.7" cy="73.3" r="3" fill="black" opacity="0.7"/><circle cx="231.1" cy="58.9" r="3" fill="black" opacity="0.7"/><circle cx="255.6" cy="44.4" r="3" fill="black" opacity="0.7"/><circle cx="280.0" cy="30.0" r="3" fill="black" opacity="0.7"/><text x="60" y="175" text-anchor="middle" font-size="9">1.0</text><text x="55" y="163" text-anchor="end" font-size="9">2.0</text><text x="115" y="175" text-anchor="middle" font-size="9">3.2</text><text x="55" y="130" text-anchor="end" font-size="9">6.5</text><text x="170" y="175" text-anchor="middle" font-size="9">5.5</text><text x="55" y="98" text-anchor="end" font-size="9">11.0</text><text x="225" y="175" text-anchor="middle" font-size="9">7.8</text><text x="55" y="66" text-anchor="end" font-size="9">15.5</text><text x="280" y="175" text-anchor="middle" font-size="9">10.0</text><text x="55" y="33" text-anchor="end" font-size="9">20.0</text><rect x="360" y="30" width="220" height="130" fill="none" stroke="black" stroke-width="1"/><text x="450" y="18" text-anchor="middle" font-size="14.0" font-weight="bold">quadratic</text><text x="470" y="195" text-anchor="middle" font-size="11">x</text><text x="315" y="95" text-anchor="middle" font-size="11" transform="rotate(-90,315,95)">y</text><circle cx="360.0" cy="160.0" r="3" fill="black" opacity="0.7"/><circle cx="384.4" cy="156.1" r="3" fill="black" opacity="0.7"/><circle cx="408.9" cy="149.5" r="3" fill="black" opacity="0.7"/><circle cx="433.3" cy="140.3" r="3" fill="black" opacity="0.7"/><circle cx="457.8" cy="128.5" r="3" fill="black" opacity="0.7"/><circle cx="482.2" cy="114.0" r="3" fill="black" opacity="0.7"/><circle cx="506.7" cy="97.0" r="3" fill="black" opacity="0.7"/><circle cx="531.1" cy="77.3" r="3" fill="black" opacity="0.7"/><circle cx="555.6" cy="54.9" r="3" fill="black" opacity="0.7"/><circle cx="580.0" cy="30.0" r="3" fill="black" opacity="0.7"/><text x="360" y="175" text-anchor="middle" font-size="9">1.0</text><text x="355" y="163" text-anchor="end" font-size="9">1.0</text><text x="415" y="175" text-anchor="middle" font-size="9">3.2</text><text x="355" y="130" text-anchor="end" font-size="9">25.8</text><text x="470" y="175" text-anchor="middle" font-size="9">5.5</text><text x="355" y="98" text-anchor="end" font-size="9">50.5</text><text x="525" y="175" text-anchor="middle" font-size="9">7.8</text><text x="355" y="66" text-anchor="end" font-size="9">75.2</text><text x="580" y="175" text-anchor="middle" font-size="9">10.0</text><text x="355" y="33" text-anchor="end" font-size="9">100.0</text><rect x="60" y="230" width="220" height="130" fill="none" stroke="black" stroke-width="1"/><text x="150" y="218" text-anchor="middle" font-size="14.0" font-weight="bold">sqrt</text><text x="170" y="395" text-anchor="middle" font-size="11">x</text><text x="15" y="295" text-anchor="middle" font-size="11" transform="rotate(-90,15,295)">y</text><circle cx="60.0" cy="360.0" r="3" fill="black" opacity="0.7"/><circle cx="84.4" cy="335.1" r="3" fill="black" opacity="0.7"/><circle cx="108.9" cy="316.0" r="3" fill="black" opacity="0.7"/><circle cx="133.3" cy="299.9" r="3" fill="black" opacity="0.7"/><circle cx="157.8" cy="285.7" r="3" fill="black" opacity="0.7"/><circle cx="182.2" cy="272.9" r="3" fill="black" opacity="0.7"/><circle cx="206.7" cy="261.1" r="3" fill="black" opacity="0.7"/><circle cx="231.1" cy="250.1" r="3" fill="black" opacity="0.7"/><circle cx="255.6" cy="239.8" r="3" fill="black" opacity="0.7"/><circle cx="280.0" cy="230.0" r="3" fill="black" opacity="0.7"/><text x="60" y="375" text-anchor="middle" font-size="9">1.0</text><text x="55" y="363" text-anchor="end" font-size="9">5.0</text><text x="115" y="375" text-anchor="middle" font-size="9">3.2</text><text x="55" y="330" text-anchor="end" font-size="9">7.7</text><text x="170" y="375" text-anchor="middle" font-size="9">5.5</text><text x="55" y="298" text-anchor="end" font-size="9">10.4</text><text x="225" y="375" text-anchor="middle" font-size="9">7.8</text><text x="55" y="266" text-anchor="end" font-size="9">13.1</text><text x="280" y="375" text-anchor="middle" font-size="9">10.0</text><text x="55" y="233" text-anchor="end" font-size="9">15.8</text><rect x="360" y="230" width="220" height="130" fill="none" stroke="black" stroke-width="1"/><text x="450" y="218" text-anchor="middle" font-size="14.0" font-weight="bold">log</text><text x="470" y="395" text-anchor="middle" font-size="11">x</text><text x="315" y="295" text-anchor="middle" font-size="11" transform="rotate(-90,315,295)">y</text><circle cx="360.0" cy="360.0" r="3" fill="black" opacity="0.7"/><circle cx="384.4" cy="320.9" r="3" fill="black" opacity="0.7"/><circle cx="408.9" cy="298.0" r="3" fill="black" opacity="0.7"/><circle cx="433.3" cy="281.7" r="3" fill="black" opacity="0.7"/><circle cx="457.8" cy="269.1" r="3" fill="black" opacity="0.7"/><circle cx="482.2" cy="258.8" r="3" fill="black" opacity="0.7"/><circle cx="506.7" cy="250.1" r="3" fill="black" opacity="0.7"/><circle cx="531.1" cy="242.6" r="3" fill="black" opacity="0.7"/><circle cx="555.6" cy="235.9" r="3" fill="black" opacity="0.7"/><circle cx="580.0" cy="230.0" r="3" fill="black" opacity="0.7"/><text x="360" y="375" text-anchor="middle" font-size="9">1.0</text><text x="355" y="363" text-anchor="end" font-size="9">0.0</text><text x="415" y="375" text-anchor="middle" font-size="9">3.2</text><text x="355" y="330" text-anchor="end" font-size="9">1.7</text><text x="470" y="375" text-anchor="middle" font-size="9">5.5</text><text x="355" y="298" text-anchor="end" font-size="9">3.5</text><text x="525" y="375" text-anchor="middle" font-size="9">7.8</text><text x="355" y="266" text-anchor="end" font-size="9">5.2</text><text x="580" y="375" text-anchor="middle" font-size="9">10.0</text><text x="355" y="233" text-anchor="end" font-size="9">6.9</text><rect x="60" y="30" width="220" height="130" fill="none" stroke="black" stroke-width="1"/><text x="150" y="18" text-anchor="middle" font-size="14.0" font-weight="bold">x^2  (wrapped to panel 1)</text><text x="170" y="195" text-anchor="middle" font-size="11">x</text><text x="15" y="95" text-anchor="middle" font-size="11" transform="rotate(-90,15,95)">y</text><circle cx="60.0" cy="160.0" r="3" fill="black" opacity="0.7"/><circle cx="84.4" cy="156.1" r="3" fill="black" opacity="0.7"/><circle cx="108.9" cy="149.5" r="3" fill="black" opacity="0.7"/><circle cx="133.3" cy="140.3" r="3" fill="black" opacity="0.7"/><circle cx="157.8" cy="128.5" r="3" fill="black" opacity="0.7"/><circle cx="182.2" cy="114.0" r="3" fill="black" opacity="0.7"/><circle cx="206.7" cy="97.0" r="3" fill="black" opacity="0.7"/><circle cx="231.1" cy="77.3" r="3" fill="black" opacity="0.7"/><circle cx="255.6" cy="54.9" r="3" fill="black" opacity="0.7"/><circle cx="280.0" cy="30.0" r="3" fill="black" opacity="0.7"/><text x="60" y="175" text-anchor="middle" font-size="9">1.0</text><text x="55" y="163" text-anchor="end" font-size="9">1.0</text><text x="115" y="175" text-anchor="middle" font-size="9">3.2</text><text x="55" y="130" text-anchor="end" font-size="9">25.8</text><text x="170" y="175" text-anchor="middle" font-size="9">5.5</text><text x="55" y="98" text-anchor="end" font-size="9">50.5</text><text x="225" y="175" text-anchor="middle" font-size="9">7.8</text><text x="55" y="66" text-anchor="end" font-size="9">75.2</text><text x="280" y="175" text-anchor="middle" font-size="9">10.0</text><text x="55" y="33" text-anchor="end" font-size="9">100.0</text></svg>